# xmcd
#
# Track frame offsets: 
#        150
#        15862
#        34833
#        53485
#        73426
#        88236
#        107813
#        123462
#        138472
#        157706
#
# Disc length: 2448 seconds
#
# Revision: 3
# Processed by: cddbd v1.5.2PL0 Copyright (c) Steve Scherf et al.
# Submitted via: ExactAudioCopy v0.99pb4
#
DISCID=7f098e0a
DTITLE=L. Agutin - Letniy dojd
DYEAR=2008
DGENRE=Latin
TTITLE0=Ne univay
TTITLE1=Letniy dojd
TTITLE2=Polnochi
TTITLE3=Tantsevali pari
TTITLE4=Malo, Mariya
TTITLE5=Bez tebya
TTITLE6=Koroleva
TTITLE7=Papa, mama
TTITLE8=Fevral
TTITLE9=Beliy kamen
EXTD=
EXTT0=
EXTT1=
EXTT2=
EXTT3=
EXTT4=
EXTT5=
EXTT6=
EXTT7=
EXTT8=
EXTT9=
PLAYORDER=
